[img]http://img51.imageshack.us/img51/9985/thefollowing.jpg[/img]

[size=200][color=black]TV INFO[/color][/size]

[code]The Following S01E02 HDTV x264 AAC-V3nom

Format                                   : MPEG-4
Format profile                           : Base Media / Version 2
Codec ID                                 : mp42
File size                                : 121 MiB
Duration                                 : 43mn 11s
Overall bit rate mode                    : Variable
Overall bit rate                         : 391 Kbps
Encoded date                             : UTC 2013-01-29 11:17:02
Tagged date                              : UTC 2013-01-29 11:33:29

Video
ID                                       : 1
Format                                   : AVC
Format/Info                              : Advanced Video Codec
Format profile                           : Main@L2.1
Format settings, CABAC                   : Yes
Format settings, ReFrames                : 4 frames
Codec ID                                 : avc1
Codec ID/Info                            : Advanced Video Coding
Duration                                 : 43mn 11s
Bit rate mode                            : Variable
Bit rate                                 : 288 Kbps
Width                                    : 640 pixels
Height                                   : 272 pixels
Display aspect ratio                     : 16:9
Frame rate mode                          : Variable
Frame rate                               : 23.976 fps
Minimum frame rate                       : 23.974 fps
Maximum frame rate                       : 23.981 fps
Color space                              : YUV
Chroma subsampling                       : 4:2:0
Bit depth                                : 8 bits
Scan type                                : Progressive
Bits/(Pixel*Frame)                       : 0.069
Stream size                              : 89.6 MiB (74%)
Writing library                          : x264 core 112

Audio
ID                                       : 2
Format                                   : AAC
Format/Info                              : Advanced Audio Codec
Format profile                           : LC
Codec ID                                 : 40
Duration                                 : 43mn 11s
Bit rate mode                            : Variable
Bit rate                                 : 96.0 Kbps
Maximum bit rate                         : 175 Kbps
Channel(s)                               : 2 channels
Channel positions                        : Front: L R
Sampling rate                            : 48.0 KHz
Compression mode                         : Lossy
Delay relative to video                  : 83ms
Stream size                              : 29.7 MiB (25%)
Encoded date                             : UTC 2013-01-29 11:17:02
Tagged date                              : UTC 2013-01-29 11:33:27[/code]

[size=200][color=black]SOURCE[/color][/size]

[code]The Following S01E02 HDTV x264-LOL[ettv](THANKS)[/code]

[size=200][color=black]SCREENSHOTS[/color][/size]

[img]http://img705.imageshack.us/img705/3636/thefollowings01e02hdtvx.jpg[/img]

[img]http://kastatic.com/i2/users/133df62bbf28e62494bb17fe11078f1a.gif[/img][img]http://kastatic.com/i2/users/133df62bbf28e62494bb17fe11078f1a.gif[/img]
